PathFileType	4	(X/Y/Z)	/Users/itak/Documents/Research/Walk-IL/dataset/trc/00512_00183.trc
DataRate	CameraRate	NumFrames	NumMarkers	Units	OrigDataRate	OrigDataStartFrame	OrigNumFrames
100.000000	100.000000	4	54	mm	100.000000	369	422
Frame#	Time	RPSI			LPSI			L3			STRN			T10			C7			CLAV			RBAK			LBAK			LSHO			LUPA			LAEL			LAOL			LWTS			LWPS			LFRA			LIFD			LHPS			LHTS			RSHO			RUPA			RAEL			RAOL			RWTS			RWPS			RFRA			RIFD			RHTS			RHPS			RBHD			LFHD			RFHD			LBHD			LHIP			RASI			LASI			LKNE			LTHI			LANK			LTIP			LTOE			LMT1			LMT5			LHEE			RKNE			RTHI			RANK			RTIP			RTOE			RMT1			RMT5			RHEE			RHIP			*53			
		X1	Y1	Z1	X2	Y2	Z2	X3	Y3	Z3	X4	Y4	Z4	X5	Y5	Z5	X6	Y6	Z6	X7	Y7	Z7	X8	Y8	Z8	X9	Y9	Z9	X10	Y10	Z10	X11	Y11	Z11	X12	Y12	Z12	X13	Y13	Z13	X14	Y14	Z14	X15	Y15	Z15	X16	Y16	Z16	X17	Y17	Z17	X18	Y18	Z18	X19	Y19	Z19	X20	Y20	Z20	X21	Y21	Z21	X22	Y22	Z22	X23	Y23	Z23	X24	Y24	Z24	X25	Y25	Z25	X26	Y26	Z26	X27	Y27	Z27	X28	Y28	Z28	X29	Y29	Z29	X30	Y30	Z30	X31	Y31	Z31	X32	Y32	Z32	X33	Y33	Z33	X34	Y34	Z34	X35	Y35	Z35	X36	Y36	Z36	X37	Y37	Z37	X38	Y38	Z38	X39	Y39	Z39	X40	Y40	Z40	X41	Y41	Z41	X42	Y42	Z42	X43	Y43	Z43	X44	Y44	Z44	X45	Y45	Z45	X46	Y46	Z46	X47	Y47	Z47	X48	Y48	Z48	X49	Y49	Z49	X50	Y50	Z50	X51	Y51	Z51	X52	Y52	Z52	X53	Y53	Z53	X54	Y54	Z54	

370	3.69	1461.141845703125	949.0133056640625	1083.10986328125	1511.93701171875	943.74560546875	968.49609375	1491.26953125	1020.574829101562	1022.106750488281	1694.277954101562	1184.830688476562	1092.465209960938	1477.471801757812	1122.572631835938	1014.998352050781	1517.192138671875	1354.606567382812	1023.591430664062	1660.18359375	1279.578491210938	1077.158447265625	1441.462280273438	1234.1728515625	1091.194458007812	1523.057983398438	1295.937255859375	938.0460815429688	1635.9033203125	1339.592041015625	895.5764770507812	1630.483032226562	1212.489990234375	836.6749877929688	1624.217163085938	1022.575927734375	827.6439208984375	1534.21435546875	1000.130493164062	863.4684448242188	1771.410278320312	928.7052612304688	948.78759765625	1742.649658203125	854.080810546875	898.678466796875	1671.71533203125	971.0756225585938	849.2550048828125	1809.127197265625	800.2301635742188	1017.263916015625	1783.016723632812	821.05029296875	924.3396606445312	1819.599853515625	862.5532836914062	960.9462890625	1515.917846679688	1352.542236328125	1181.001586914062	1476.797485351562	1288.786987304688	1229.635620117188	1466.853271484375	1026.738403320312	1279.222045898438	1425.387939453125	999.4562377929688	1234.251953125	1656.193359375	912.7928466796875	1272.14794921875	1599.84326171875	860.310791015625	1319.78125	1486.953369140625	980.8748168945312	1289.610595703125	1727.674194335938	768.2875366210938	1281.81298828125	1713.02490234375	836.7848510742188	1301.955444335938	1652.391845703125	804.2321166992188	1324.469360351562	1503.626220703125	1502.229125976562	1087.411376953125	1682.331665039062	1582.4169921875	1046.022583007812	1604.8310546875	1574.2783203125	1145.588745117188	1589.137451171875	1504.512084960938	954.8650512695312	1662.762084960938	874.8670654296875	897.9988403320312	1626.096801757812	900.3862915039062	1220.14453125	1720.578735351562	912.4872436523438	995.3016357421875	1660.720092773438	458.2075805664062	931.43310546875	1687.2529296875	615.6470947265625	917.4865112304688	1512.049682617188	37.28733062744141	864.6771240234375	1614.7919921875	310.888427734375	904.4007568359375	1678.932250976562	23.32789993286133	987.5669555664062	1595.11083984375	29.02408027648926	990.7422485351562	1619.78125	29.81748199462891	891.7510986328125	1447.796752929688	29.35223770141602	905.7916870117188	1546.359497070312	461.3782348632812	1199.83056640625	1538.230834960938	721.8680419921875	1248.810424804688	1469.734252929688	37.61925888061523	1127.4013671875	1551.82958984375	314.608642578125	1178.337890625	1662.220825195312	26.12996864318848	1197.41259765625	1625.822387695312	28.88889694213867	1128.550170898438	1558.452514648438	31.47889518737793	1199.7470703125	1446.152221679688	26.6126823425293	1062.1484375	1509.388793945312	852.6700439453125	1240.554077148438	nan	nan	nan	
371	3.7	1461.440551757812	949.015869140625	1082.666748046875	1512.638549804688	943.8673095703125	968.500244140625	1491.498291015625	1020.4365234375	1021.634826660156	1694.316650390625	1184.818481445312	1092.586059570312	1477.817993164062	1122.366455078125	1014.543273925781	1517.421752929688	1354.51318359375	1023.057250976562	1660.212890625	1279.529052734375	1077.100830078125	1441.568237304688	1234.0546875	1090.448364257812	1523.602783203125	1295.76123046875	937.5308837890625	1636.558959960938	1339.451171875	895.4229125976562	1631.448852539062	1212.304565429688	836.5972290039062	1625.468872070312	1022.39990234375	827.678955078125	1535.350341796875	999.8551025390625	863.165771484375	1772.292602539062	928.801513671875	949.3930053710938	1743.848510742188	854.08251953125	899.2388305664062	1672.915161132812	971.0001831054688	849.4882202148438	1810.009521484375	800.4301147460938	1018.172973632812	1784.1748046875	821.1456298828125	925.131591796875	1820.526489257812	862.7294311523438	961.8511962890625	1515.572998046875	1352.517944335938	1180.417602539062	1476.288208007812	1288.826782226562	1228.9912109375	1466.186401367188	1026.769775390625	1278.713989257812	1424.984985351562	999.5923461914062	1233.618408203125	1655.378295898438	912.45654296875	1272.632568359375	1598.711669921875	860.2288818359375	1320.142456054688	1486.214599609375	980.959228515625	1289.329711914062	1726.421630859375	767.6851196289062	1282.71728515625	1711.8974609375	836.3349609375	1302.783081054688	1651.21044921875	804.3131103515625	1325.419067382812	1503.420776367188	1501.945068359375	1087.068237304688	1682.079833984375	1582.59326171875	1046.192016601562	1604.416625976562	1574.06787109375	1145.6298828125	1589.184814453125	1504.670043945312	954.8541259765625	1663.5634765625	874.6213989257812	898.3724365234375	1625.992309570312	900.4287109375	1220.175903320312	1721.192749023438	912.3917846679688	995.62353515625	1660.842651367188	458.1013793945312	931.4705200195312	1687.668090820312	615.5332641601562	917.64892578125	1512.010131835938	37.19496154785156	864.720703125	1614.817016601562	310.8437805175781	904.37109375	1678.92333984375	23.3393440246582	987.5617065429688	1595.1064453125	29.02667808532715	990.7363891601562	1619.773803710938	29.79851722717285	891.7373657226562	1447.796508789062	29.26620483398438	905.8224487304688	1546.228515625	461.4185485839844	1199.768310546875	1537.948364257812	722.0208740234375	1248.686279296875	1469.731689453125	37.61468887329102	1127.385131835938	1551.73681640625	314.7117614746094	1178.360961914062	1662.218383789062	26.13226127624512	1197.4189453125	1625.810913085938	28.89185905456543	1128.555297851562	1558.442260742188	31.49542427062988	1199.738891601562	1446.155639648438	26.59651374816895	1062.129760742188	1509.368041992188	853.1571044921875	1240.795288085938	nan	nan	nan	
372	3.71	1461.705932617188	949.0291137695312	1082.23828125	1513.306274414062	943.9886474609375	968.4933471679688	1491.706420898438	1020.300659179688	1021.172790527344	1694.340209960938	1184.805297851562	1092.688110351562	1478.118896484375	1122.1748046875	1014.069030761719	1517.629516601562	1354.41845703125	1022.523742675781	1660.23046875	1279.478393554688	1077.02734375	1441.65771484375	1233.95263671875	1089.6943359375	1524.1162109375	1295.582763671875	937.0150756835938	1637.192749023438	1339.318725585938	895.2544555664062	1632.39208984375	1212.124755859375	836.5142822265625	1626.709838867188	1022.228332519531	827.7236938476562	1536.462036132812	999.5905151367188	862.8562622070312	1773.128662109375	928.9012451171875	950.0233764648438	1745.00048828125	854.0964965820312	899.8165283203125	1674.084106445312	970.9288330078125	849.7393798828125	1810.886474609375	800.6349487304688	1019.071655273438	1785.292236328125	821.250732421875	925.9234619140625	1821.423217773438	862.9151000976562	962.7514038085938	1515.227172851562	1352.486206054688	1179.834350585938	1475.784545898438	1288.851928710938	1228.346435546875	1465.552856445312	1026.782958984375	1278.218627929688	1424.606201171875	999.6968383789062	1232.996337890625	1654.584594726562	912.071044921875	1273.08203125	1597.614013671875	860.1300659179688	1320.508666992188	1485.503784179688	981.0087890625	1289.037841796875	1725.149169921875	767.0209350585938	1283.591552734375	1710.782348632812	835.8312377929688	1303.563354492188	1650.052856445312	804.3988647460938	1326.380981445312	1503.194213867188	1501.644287109375	1086.684326171875	1681.810424804688	1582.756103515625	1046.350952148438	1603.990478515625	1573.883056640625	1145.675170898438	1589.244873046875	1504.817260742188	954.814208984375	1664.331176757812	874.4000854492188	898.70849609375	1625.855102539062	900.399169921875	1220.127563476562	1721.772705078125	912.2960815429688	995.9344482421875	1660.954223632812	457.9764404296875	931.5274047851562	1688.067504882812	615.4280395507812	917.8123779296875	1511.9716796875	37.09536743164062	864.7694702148438	1614.817504882812	310.7501525878906	904.3898315429688	1678.912475585938	23.35408210754395	987.5543823242188	1595.101440429688	29.02850341796875	990.7310180664062	1619.762329101562	29.7819652557373	891.7262573242188	1447.798706054688	29.17023468017578	905.862060546875	1546.079833984375	461.4442443847656	1199.708984375	1537.633178710938	722.101806640625	1248.482177734375	1469.725830078125	37.60460662841797	1127.370971679688	1551.62255859375	314.8162841796875	1178.399658203125	1662.215698242188	26.13412666320801	1197.426391601562	1625.798828125	28.89452171325684	1128.56103515625	1558.43017578125	31.51424980163574	1199.731079101562	1446.15869140625	26.57960319519043	1062.1123046875	1509.34814453125	853.7179565429688	1241.134765625	nan	nan	nan	
373	3.72	1461.944946289062	949.0493774414062	1081.8193359375	1513.939697265625	944.1102294921875	968.4771728515625	1491.900024414062	1020.165161132812	1020.72265625	1694.344116210938	1184.791137695312	1092.775512695312	1478.376098632812	1121.997192382812	1013.5732421875	1517.814453125	1354.320678710938	1021.994750976562	1660.236572265625	1279.426513671875	1076.943359375	1441.730224609375	1233.863159179688	1088.93310546875	1524.598510742188	1295.40283203125	936.5035400390625	1637.806640625	1339.19677734375	895.0763549804688	1633.310546875	1211.952758789062	836.4285278320312	1627.932739257812	1022.062683105469	827.77587890625	1537.540283203125	999.3394775390625	862.54296875	1773.914794921875	929.000732421875	950.6688842773438	1746.093627929688	854.1173706054688	900.4078979492188	1675.214233398438	970.859619140625	850.0035400390625	1811.742919921875	800.8387451171875	1019.955871582031	1786.354614257812	821.3582763671875	926.7118530273438	1822.2802734375	863.1033325195312	963.639892578125	1514.877319335938	1352.446166992188	1179.255126953125	1475.285400390625	1288.858154296875	1227.700073242188	1464.954956054688	1026.77734375	1277.738403320312	1424.246704101562	999.756591796875	1232.380493164062	1653.814819335938	911.6356201171875	1273.496704101562	1596.551635742188	860.007568359375	1320.87451171875	1484.821899414062	981.0233764648438	1288.73681640625	1723.86083984375	766.2932739257812	1284.432006835938	1709.682373046875	835.2716674804688	1304.295776367188	1648.911010742188	804.4551391601562	1327.323852539062	1502.953491210938	1501.334350585938	1086.268188476562	1681.52880859375	1582.901733398438	1046.496826171875	1603.552490234375	1573.720581054688	1145.713623046875	1589.319091796875	1504.95361328125	954.73486328125	1665.07421875	874.2216796875	898.9853515625	1625.6904296875	900.312255859375	1220.017578125	1722.318603515625	912.2007446289062	996.236083984375	1661.052490234375	457.8327026367188	931.60693359375	1688.455932617188	615.3336791992188	917.9758911132812	1511.937133789062	36.99457550048828	864.8187255859375	1614.796142578125	310.6177368164062	904.4482421875	1678.899169921875	23.37070846557617	987.5452270507812	1595.096069335938	29.02961730957031	990.726318359375	1619.747436523438	29.76797676086426	891.7181396484375	1447.805053710938	29.07018280029297	905.9073486328125	1545.916137695312	461.4623718261719	1199.657958984375	1537.2900390625	722.1255493164062	1248.21630859375	1469.716186523438	37.58708572387695	1127.356689453125	1551.48486328125	314.9098510742188	1178.446655273438	1662.212646484375	26.13564300537109	1197.434936523438	1625.786987304688	28.89717674255371	1128.567138671875	1558.416748046875	31.53546714782715	1199.722412109375	1446.1611328125	26.5621223449707	1062.095947265625	1509.32275390625	854.3306274414062	1241.547119140625	nan	nan	nan	
